<?xml version="1.0" encoding="UTF-8"?> <svg xmlns="http://www.w3.org/2000/svg" width="89" height="16" viewBox="0 0 89 16" fill="none"><path d="M16.33 6.74108L12.8239 10.1035L13.6519 14.8526C13.6879 15.0603 13.6012 15.2702 13.4279 15.3942C13.3299 15.4646 13.2134 15.5 13.0969 15.5C13.0074 15.5 12.9173 15.479 12.8352 15.4363L8.5 13.1941L4.16539 15.4358C3.97627 15.5343 3.74606 15.5183 3.5727 15.3937C3.39933 15.2696 3.31265 15.0598 3.34868 14.8521L4.17665 10.103L0.670011 6.74108C0.516913 6.59378 0.461189 6.37338 0.527607 6.17347C0.594025 5.97356 0.770201 5.82681 0.9824 5.79636L5.82809 5.10415L7.99511 0.783667C8.1848 0.405444 8.8152 0.405444 9.00489 0.783667L11.1719 5.10415L16.0176 5.79636C16.2298 5.82681 16.406 5.97301 16.4724 6.17347C16.5388 6.37394 16.4831 6.59323 16.33 6.74108Z" fill="#CA994E"></path><path d="M34.33 6.74108L30.8239 10.1035L31.6519 14.8526C31.6879 15.0603 31.6012 15.2702 31.4279 15.3942C31.3299 15.4646 31.2134 15.5 31.0969 15.5C31.0074 15.5 30.9173 15.479 30.8352 15.4363L26.5 13.1941L22.1654 15.4358C21.9763 15.5343 21.7461 15.5183 21.5727 15.3937C21.3993 15.2696 21.3127 15.0598 21.3487 14.8521L22.1766 10.103L18.67 6.74108C18.5169 6.59378 18.4612 6.37338 18.5276 6.17347C18.594 5.97356 18.7702 5.82681 18.9824 5.79636L23.8281 5.10415L25.9951 0.783667C26.1848 0.405444 26.8152 0.405444 27.0049 0.783667L29.1719 5.10415L34.0176 5.79636C34.2298 5.82681 34.406 5.97301 34.4724 6.17347C34.5388 6.37394 34.4831 6.59323 34.33 6.74108Z" fill="#CA994E"></path><path d="M52.33 6.74108L48.8239 10.1035L49.6519 14.8526C49.6879 15.0603 49.6012 15.2702 49.4279 15.3942C49.3299 15.4646 49.2134 15.5 49.0969 15.5C49.0074 15.5 48.9173 15.479 48.8352 15.4363L44.5 13.1941L40.1654 15.4358C39.9763 15.5343 39.7461 15.5183 39.5727 15.3937C39.3993 15.2696 39.3127 15.0598 39.3487 14.8521L40.1766 10.103L36.67 6.74108C36.5169 6.59378 36.4612 6.37338 36.5276 6.17347C36.594 5.97356 36.7702 5.82681 36.9824 5.79636L41.8281 5.10415L43.9951 0.783667C44.1848 0.405444 44.8152 0.405444 45.0049 0.783667L47.1719 5.10415L52.0176 5.79636C52.2298 5.82681 52.406 5.97301 52.4724 6.17347C52.5388 6.37394 52.4831 6.59323 52.33 6.74108Z" fill="#CA994E"></path><path d="M70.33 6.74108L66.8239 10.1035L67.6519 14.8526C67.6879 15.0603 67.6012 15.2702 67.4279 15.3942C67.3299 15.4646 67.2134 15.5 67.0969 15.5C67.0074 15.5 66.9173 15.479 66.8352 15.4363L62.5 13.1941L58.1654 15.4358C57.9763 15.5343 57.7461 15.5183 57.5727 15.3937C57.3993 15.2696 57.3127 15.0598 57.3487 14.8521L58.1766 10.103L54.67 6.74108C54.5169 6.59378 54.4612 6.37338 54.5276 6.17347C54.594 5.97356 54.7702 5.82681 54.9824 5.79636L59.8281 5.10415L61.9951 0.783667C62.1848 0.405444 62.8152 0.405444 63.0049 0.783667L65.1719 5.10415L70.0176 5.79636C70.2298 5.82681 70.406 5.97301 70.4724 6.17347C70.5388 6.37394 70.4831 6.59323 70.33 6.74108Z" fill="#CA994E"></path><path d="M88.33 6.74108L84.8239 10.1035L85.6519 14.8526C85.6879 15.0603 85.6012 15.2702 85.4279 15.3942C85.3299 15.4646 85.2134 15.5 85.0969 15.5C85.0074 15.5 84.9173 15.479 84.8352 15.4363L80.5 13.1941L76.1654 15.4358C75.9763 15.5343 75.7461 15.5183 75.5727 15.3937C75.3993 15.2696 75.3127 15.0598 75.3487 14.8521L76.1766 10.103L72.67 6.74108C72.5169 6.59378 72.4612 6.37338 72.5276 6.17347C72.594 5.97356 72.7702 5.82681 72.9824 5.79636L77.8281 5.10415L79.9951 0.783667C80.1848 0.405444 80.8152 0.405444 81.0049 0.783667L83.1719 5.10415L88.0176 5.79636C88.2298 5.82681 88.406 5.97301 88.4724 6.17347C88.5388 6.37394 88.4831 6.59323 88.33 6.74108Z" fill="#B2BACC"></path><path d="M81.0049 6.5V10.1035V13.4531L80.5 13.1941L76.1654 15.4358C75.9763 15.5343 75.7461 15.5183 75.5727 15.3937C75.3993 15.2696 75.3127 15.0598 75.3487 14.8521L76.1766 10.103L72.67 6.74108C72.5169 6.59378 72.4612 6.37338 72.5276 6.17347C72.594 5.97356 72.7702 5.82681 72.9824 5.79636L77.8281 5.10415L79.9951 0.783667C80.1848 0.405444 80.8152 0.405444 81.0049 0.783667V6.5Z" fill="#CA994E"></path></svg> 